<svg xmlns="http://www.w3.org/2000/svg" viewBox="0 5 185 78" fill="none">
  <defs>
    <linearGradient id="tempo-grad" x1="0%" y1="0%" x2="100%" y2="100%">
      <stop offset="0%" stop-color="#FF4D8D"/>
      <stop offset="100%" stop-color="#7C5CFC"/>
    </linearGradient>
  </defs>
  <path d="M15.50 15.85L2.68 15.85L2.68 11.26L33.47 11.26L33.47 15.85L20.70 15.85L20.70 52L15.50 52L15.50 15.85ZM53.32 52.66L53.32 52.66Q48.89 52.66 45.68 50.69Q42.46 48.72 40.73 45.19Q38.99 41.66 38.99 36.96L38.99 36.96Q38.99 32.26 40.69 28.68Q42.38 25.09 45.49 23.07Q48.59 21.05 52.75 21.05L52.75 21.05Q55.18 21.05 57.54 21.85Q59.91 22.66 61.84 24.45Q63.77 26.24 64.91 29.17Q66.06 32.09 66.06 36.33L66.06 36.33L66.06 38.38L42.33 38.38L42.33 34.23L63.41 34.23L61.11 35.76Q61.11 32.75 60.17 30.41Q59.23 28.07 57.37 26.75Q55.51 25.42 52.75 25.42L52.75 25.42Q49.98 25.42 48.02 26.78Q46.05 28.13 45.01 30.30Q43.97 32.48 43.97 34.96L43.97 34.96L43.97 37.73Q43.97 41.12 45.14 43.48Q46.32 45.85 48.44 47.06Q50.56 48.28 53.35 48.28L53.35 48.28Q55.15 48.28 56.63 47.76Q58.11 47.24 59.17 46.19Q60.24 45.14 60.81 43.58L60.81 43.58L65.57 44.89Q64.86 47.19 63.16 48.94Q61.47 50.69 58.97 51.67Q56.46 52.66 53.32 52.66ZM78.04 52L73.12 52L73.12 21.43L77.90 21.43L77.93 28.27L77.55 28.27Q78.18 25.78 79.53 24.15Q80.88 22.52 82.70 21.70Q84.52 20.88 86.49 20.88L86.49 20.88Q89.82 20.88 91.89 22.93Q93.95 24.98 94.55 28.32L94.55 28.32L93.90 28.32Q94.45 26.02 95.89 24.36Q97.34 22.69 99.41 21.79Q101.47 20.88 103.91 20.88L103.91 20.88Q106.56 20.88 108.75 22.03Q110.93 23.18 112.23 25.50Q113.53 27.83 113.53 31.38L113.53 31.38L113.53 52L108.61 52L108.61 31.52Q108.61 28.21 106.75 26.79Q104.89 25.37 102.43 25.37L102.43 25.37Q100.38 25.37 98.89 26.23Q97.40 27.09 96.59 28.59Q95.79 30.10 95.79 32.04L95.79 32.04L95.79 52L90.86 52L90.86 31.03Q90.86 28.48 89.17 26.93Q87.47 25.37 84.88 25.37L84.88 25.37Q83.10 25.37 81.53 26.20Q79.95 27.04 79.00 28.68Q78.04 30.32 78.04 32.75L78.04 32.75L78.04 52ZM127.09 63.43L122.17 63.43L122.17 21.43L126.93 21.43L126.93 26.32L127.48 26.32Q128.00 25.50 128.93 24.26Q129.86 23.02 131.61 22.03Q133.36 21.05 136.34 21.05L136.34 21.05Q140.16 21.05 143.08 22.96Q145.99 24.88 147.64 28.42Q149.30 31.96 149.30 36.80L149.30 36.80Q149.30 41.66 147.66 45.22Q146.02 48.77 143.10 50.71Q140.19 52.66 136.36 52.66L136.36 52.66Q133.46 52.66 131.69 51.66Q129.91 50.66 128.95 49.39Q128.00 48.12 127.48 47.27L127.48 47.27L127.09 47.27L127.09 63.43ZM135.63 48.25L135.63 48.25Q138.50 48.25 140.42 46.71Q142.35 45.16 143.32 42.55Q144.29 39.94 144.29 36.74L144.29 36.74Q144.29 33.57 143.34 31.01Q142.38 28.46 140.45 26.95Q138.52 25.45 135.63 25.45L135.63 25.45Q132.81 25.45 130.89 26.87Q128.98 28.29 128.01 30.82Q127.04 33.35 127.04 36.74L127.04 36.74Q127.04 40.13 128.02 42.73Q129.01 45.33 130.94 46.79Q132.86 48.25 135.63 48.25Z" fill="#1A1B3A"/>
  <circle cx="166.3" cy="36.8" r="14" fill="url(#tempo-grad)"/>
  <polygon points="161.3,28.8 161.3,44.8 173.3,36.8" fill="white" fill-opacity="0.95"/>
  <text x="92.5" y="75" text-anchor="middle" font-family="Inter, sans-serif" font-weight="500" font-size="9" letter-spacing="1.2" fill="#9CA3AF">CREATOR MANAGEMENT, SIMPLIFIED</text>
</svg>